<svg xmlns="http://www.w3.org/2000/svg" width="512" height="512" viewBox="0 0 512 512" version="1.1"><path d="M 259.500 107.125 C 241.133 108.274, 220.725 113.567, 205.995 121.002 C 183.145 132.537, 161.265 153.725, 147.652 177.500 C 125.482 216.221, 124.713 266.327, 145.661 307.152 L 150.101 315.804 138.029 351.652 L 125.957 387.500 143.835 369.500 L 161.712 351.500 167.949 333 C 171.379 322.825, 174.200 313.491, 174.218 312.258 C 174.236 311.025, 173.055 308.450, 171.595 306.536 C 167.479 301.139, 160.324 285.430, 157.541 275.679 C 143.251 225.604, 164.880 171.889, 210.176 144.967 C 244.103 124.801, 289.944 124.270, 323.500 143.654 C 331.299 148.159, 346.230 159.163, 348.885 162.362 C 350.061 163.778, 351.174 163.083, 358.711 156.229 L 367.211 148.500 360.666 142.413 C 342.639 125.644, 316.414 112.751, 292 108.656 C 280.271 106.688, 272.409 106.318, 259.500 107.125 M 216.252 179.066 C 205.147 184.663, 197.914 202.013, 200.119 217.765 C 202.010 231.274, 212.001 249.105, 229.302 269.847 L 236.263 278.194 244.632 269.869 C 249.234 265.290, 253 261.185, 253 260.745 C 253 260.306, 250.634 257.079, 247.743 253.574 C 241.513 246.020, 235 235.319, 235 232.636 C 235 231.585, 237.476 227.826, 240.501 224.281 C 243.527 220.737, 246.286 216.710, 246.631 215.334 C 247.330 212.550, 236.973 183.326, 234.117 180.022 C 233.026 178.761, 230.549 177.953, 226.500 177.539 C 221.548 177.033, 219.758 177.299, 216.252 179.066" stroke="none" fill="#fefefe" fill-rule="evenodd"/><path d="M 260.768 106.725 C 262.565 106.947, 265.265 106.943, 266.768 106.715 C 268.271 106.486, 266.800 106.304, 263.500 106.310 C 260.200 106.315, 258.971 106.502, 260.768 106.725 M 273.250 106.716 C 274.762 106.945, 277.238 106.945, 278.750 106.716 C 280.262 106.487, 279.025 106.300, 276 106.300 C 272.975 106.300, 271.738 106.487, 273.250 106.716 M 266.768 129.725 C 268.565 129.947, 271.265 129.943, 272.768 129.715 C 274.271 129.486, 272.800 129.304, 269.500 129.310 C 266.200 129.315, 264.971 129.502, 266.768 129.725 M 361 142.313 C 361 142.485, 362.462 143.948, 364.250 145.563 L 367.500 148.500 364.563 145.250 C 361.825 142.221, 361 141.540, 361 142.313 M 358.500 156.424 L 350.500 163.820 347.009 160.660 C 345.088 158.922, 346.922 161.100, 351.084 165.500 C 399.474 216.661, 391.431 297.198, 333.826 338.305 C 315.683 351.251, 296.166 357.685, 272 358.684 C 251.195 359.545, 233.008 355.374, 214.137 345.414 C 209.538 342.986, 204.993 341, 204.038 341 C 203.082 341, 193.170 343.913, 182.010 347.472 C 170.850 351.032, 161.415 353.757, 161.044 353.527 C 160.672 353.297, 153.002 360.485, 144 369.500 C 134.998 378.515, 127.195 385.621, 126.661 385.291 C 126.128 384.961, 125.988 385.172, 126.352 385.760 C 126.715 386.348, 126.447 387.031, 125.756 387.278 C 125.065 387.524, 124.841 388.092, 125.258 388.538 C 125.675 388.985, 142.514 384.056, 162.677 377.586 C 185.780 370.173, 200.292 365.999, 201.919 366.301 C 203.338 366.564, 208.593 368.596, 213.596 370.816 C 232.653 379.274, 250.613 382.544, 273.357 381.698 C 309.372 380.357, 339.148 367.672, 364.076 343.050 C 384.946 322.435, 396.953 300.701, 403.224 272.183 C 406.164 258.812, 406.377 230.542, 403.632 218 C 398.245 193.385, 387.124 170.768, 372.040 153.750 C 369.725 151.137, 367.531 149.006, 367.165 149.014 C 366.799 149.021, 362.900 152.356, 358.500 156.424 M 186.453 163.250 L 182.500 167.500 186.750 163.547 C 189.088 161.373, 191 159.460, 191 159.297 C 191 158.540, 190.129 159.298, 186.453 163.250 M 227.250 177.689 C 228.213 177.941, 229.787 177.941, 230.750 177.689 C 231.713 177.438, 230.925 177.232, 229 177.232 C 227.075 177.232, 226.287 177.438, 227.250 177.689 M 199.232 207 C 199.232 208.925, 199.438 209.713, 199.689 208.750 C 199.941 207.787, 199.941 206.213, 199.689 205.250 C 199.438 204.287, 199.232 205.075, 199.232 207 M 130.272 234 C 130.272 236.475, 130.467 237.488, 130.706 236.250 C 130.944 235.012, 130.944 232.988, 130.706 231.750 C 130.467 230.512, 130.272 231.525, 130.272 234 M 153.365 244.500 C 153.368 250, 153.536 252.122, 153.738 249.216 C 153.941 246.311, 153.939 241.811, 153.734 239.216 C 153.528 236.622, 153.363 239, 153.365 244.500 M 130.272 253 C 130.272 255.475, 130.467 256.488, 130.706 255.250 C 130.944 254.012, 130.944 251.988, 130.706 250.750 C 130.467 249.512, 130.272 250.525, 130.272 253 M 250.250 256.563 C 251.762 258.238, 253 260.025, 253 260.534 C 253 261.042, 249.307 265.171, 244.793 269.708 L 236.586 277.958 239.543 281.116 C 253.108 295.602, 289.561 313.169, 305.944 313.118 C 322.185 313.066, 336.016 303.225, 339.078 289.541 C 340.914 281.337, 340.067 279.662, 331.738 275.027 C 315.404 265.938, 305.980 261.701, 304.126 262.613 C 303.133 263.101, 299.074 267.212, 295.105 271.750 C 291.137 276.288, 287.127 279.990, 286.195 279.978 C 281.066 279.912, 264.494 269.527, 254.519 260.128 C 250.658 256.491, 248.738 254.887, 250.250 256.563" stroke="none" fill="#dcdcdc" fill-rule="evenodd"/><path d="M 396.022 119.457 L 367.544 147.969 372.297 152.793 C 374.910 155.447, 376.700 158.001, 376.274 158.469 C 375.848 158.938, 376.067 158.994, 376.761 158.595 C 377.568 158.130, 383.323 162.669, 392.761 171.215 C 413.978 190.427, 443.589 216.976, 465.500 236.431 C 475.950 245.709, 486.096 254.811, 488.048 256.656 L 491.595 260.011 491.811 253.255 C 491.999 247.370, 491.403 239.696, 489.391 222.082 C 488.594 215.108, 485.206 199.327, 482.398 189.500 C 477.955 173.958, 466.324 146.294, 463.758 145.167 C 463.341 144.983, 463 144.247, 463 143.531 C 463 142.814, 461.200 139.532, 459 136.238 C 456.800 132.943, 455 129.926, 455 129.532 C 455 129.138, 454.212 127.784, 453.250 126.523 C 452.288 125.263, 450.825 123.218, 450 121.979 C 446.242 116.334, 434.804 101.960, 429.905 96.723 L 424.500 90.946 396.022 119.457 M 302.121 212.459 L 254.742 259.534 258.660 263.074 C 266.407 270.072, 281.660 279, 285.871 279 C 287.658 279, 295.560 271.219, 300.343 264.750 C 303.492 260.491, 306.707 261.146, 321.916 269.144 C 341.221 279.296, 340.002 278.235, 339.990 284.865 C 339.962 301.049, 325.426 313.254, 306 313.405 C 298.534 313.464, 296.245 313.008, 287.178 309.662 C 266.248 301.936, 254.079 295.054, 241.664 283.921 L 235.829 278.688 213.664 300.679 C 201.474 312.775, 184.753 329.236, 176.507 337.260 C 168.262 345.283, 161.787 352.121, 162.121 352.454 C 162.454 352.787, 172.121 350.066, 183.604 346.407 L 204.481 339.754 211.991 343.799 C 233.754 355.520, 256.031 360.329, 277.902 358.029 C 305.493 355.128, 327.679 345, 346.835 326.560 C 365.325 308.762, 376.397 288.021, 380.613 263.282 C 383.012 249.213, 382.096 227.871, 378.543 215.035 C 375.521 204.116, 369.058 189.921, 363.143 181.210 C 358.794 174.807, 351.135 165.540, 350.111 165.442 C 349.775 165.410, 328.179 186.567, 302.121 212.459 M 107.135 406.394 L 89.778 423.694 97.826 430.597 C 109.279 440.419, 111.993 442.587, 118.090 446.780 C 121.066 448.826, 123.725 450.761, 124 451.081 C 125.001 452.245, 138.942 461.015, 141.683 462.205 C 143.232 462.878, 146.134 464.429, 148.130 465.651 C 152.348 468.234, 164.047 473.286, 164.579 472.755 C 165.006 472.327, 126.509 391.109, 125.312 389.912 C 124.862 389.462, 116.682 396.878, 107.135 406.394" stroke="none" fill="#439f2f" fill-rule="evenodd"/><path d="M 396.022 119.457 L 367.544 147.969 372.297 152.793 C 374.910 155.447, 376.700 158.001, 376.274 158.469 C 375.848 158.938, 376.067 158.994, 376.761 158.595 C 377.568 158.130, 383.323 162.669, 392.761 171.215 C 413.978 190.427, 443.589 216.976, 465.500 236.431 C 475.950 245.709, 486.096 254.811, 488.048 256.656 L 491.595 260.011 491.811 253.255 C 491.999 247.370, 491.403 239.696, 489.391 222.082 C 488.594 215.108, 485.206 199.327, 482.398 189.500 C 477.955 173.958, 466.324 146.294, 463.758 145.167 C 463.341 144.983, 463 144.247, 463 143.531 C 463 142.814, 461.200 139.532, 459 136.238 C 456.800 132.943, 455 129.926, 455 129.532 C 455 129.138, 454.212 127.784, 453.250 126.523 C 452.288 125.263, 450.825 123.218, 450 121.979 C 446.242 116.334, 434.804 101.960, 429.905 96.723 L 424.500 90.946 396.022 119.457 M 302.121 212.459 L 254.742 259.534 258.660 263.074 C 266.407 270.072, 281.660 279, 285.871 279 C 287.658 279, 295.560 271.219, 300.343 264.750 C 303.492 260.491, 306.707 261.146, 321.916 269.144 C 341.221 279.296, 340.002 278.235, 339.990 284.865 C 339.962 301.049, 325.426 313.254, 306 313.405 C 298.534 313.464, 296.245 313.008, 287.178 309.662 C 266.248 301.936, 254.079 295.054, 241.664 283.921 L 235.829 278.688 213.664 300.679 C 201.474 312.775, 184.753 329.236, 176.507 337.260 C 168.262 345.283, 161.787 352.121, 162.121 352.454 C 162.454 352.787, 172.121 350.066, 183.604 346.407 L 204.481 339.754 211.991 343.799 C 233.754 355.520, 256.031 360.329, 277.902 358.029 C 305.493 355.128, 327.679 345, 346.835 326.560 C 365.325 308.762, 376.397 288.021, 380.613 263.282 C 383.012 249.213, 382.096 227.871, 378.543 215.035 C 375.521 204.116, 369.058 189.921, 363.143 181.210 C 358.794 174.807, 351.135 165.540, 350.111 165.442 C 349.775 165.410, 328.179 186.567, 302.121 212.459 M 107.135 406.394 L 89.778 423.694 97.826 430.597 C 109.279 440.419, 111.993 442.587, 118.090 446.780 C 121.066 448.826, 123.725 450.761, 124 451.081 C 125.001 452.245, 138.942 461.015, 141.683 462.205 C 143.232 462.878, 146.134 464.429, 148.130 465.651 C 152.348 468.234, 164.047 473.286, 164.579 472.755 C 165.006 472.327, 126.509 391.109, 125.312 389.912 C 124.862 389.462, 116.682 396.878, 107.135 406.394" stroke="none" fill="#439f2f" fill-rule="evenodd"/><path d="M 376.162 158 C 390.715 176.510, 400.550 198.527, 404.475 221.381 C 406.412 232.659, 406.437 254.754, 404.527 266.530 C 401.174 287.205, 392.894 307.506, 381.018 324.170 C 373.333 334.954, 356.078 351.886, 345.542 358.982 C 321.848 374.940, 296.819 382.375, 267 382.314 C 244.978 382.269, 230.033 378.915, 208.748 369.242 L 200.995 365.720 164.248 377.481 C 144.036 383.949, 127.174 389.535, 126.776 389.894 C 126.379 390.253, 135.019 409.436, 145.976 432.524 L 165.900 474.500 173.200 477.330 C 183.778 481.430, 202.907 486.517, 217.667 489.154 C 228.805 491.143, 233.869 491.449, 256 491.465 C 283.903 491.486, 293.863 490.289, 317.582 484.066 C 363.828 471.933, 408.322 443.202, 438.765 405.815 C 461.304 378.135, 478.718 342.348, 486.395 307.934 C 489.142 295.621, 492 273.899, 492 265.332 L 492 260.152 469.250 239.863 C 456.738 228.704, 437.725 211.696, 427 202.068 C 366.144 147.434, 371.516 152.091, 376.162 158" stroke="none" fill="#2d6e1f" fill-rule="evenodd"/><path d="M 235.500 21.614 C 188.372 26.470, 141.676 45.686, 107.156 74.426 C 68.090 106.953, 40.383 150.288, 28.469 197.500 C 23.650 216.592, 21.866 230.150, 21.295 252 C 20.617 277.955, 23.033 297.130, 30.116 322 C 39.912 356.397, 59.129 390.503, 83.618 416.954 C 86.734 420.319, 89.655 422.944, 90.111 422.786 C 90.567 422.629, 98.491 415.021, 107.720 405.880 C 118.205 395.494, 125.063 389.427, 126 389.706 C 126.974 389.996, 127.106 389.863, 126.378 389.326 C 125.591 388.747, 128.803 377.906, 137.128 353.050 C 143.657 333.553, 149 316.927, 149 316.104 C 149 315.281, 146.990 310.716, 144.533 305.958 C 139.378 295.978, 134.906 283.161, 132.334 271 C 129.500 257.594, 129.757 228.843, 132.835 215 C 138.690 188.668, 151.705 165.516, 172.034 145.269 C 196.495 120.906, 226.992 107.987, 264 106.311 C 300.579 104.654, 338.098 119.352, 364.792 145.796 C 369.581 150.541, 372.166 152.965, 370.535 151.183 L 367.571 147.942 396.035 119.406 L 424.500 90.869 417 83.763 C 407.815 75.061, 390.726 62.225, 378 54.468 C 352.821 39.122, 322.544 28.216, 292 23.489 C 281.925 21.930, 244.488 20.688, 235.500 21.614 M 256 130.526 C 255.175 130.688, 251.125 131.369, 247 132.039 C 204.971 138.875, 168.974 172.405, 157.278 215.612 C 154.817 224.704, 154.602 227.029, 154.602 244.500 C 154.602 261.949, 154.819 264.303, 157.265 273.337 C 160.046 283.605, 167.881 301.027, 172.381 306.944 C 173.821 308.839, 175 311.129, 175 312.034 C 175 312.940, 172.163 322.080, 168.696 332.347 L 162.392 351.013 175.446 338.278 C 182.626 331.274, 198.987 315.183, 211.804 302.521 C 224.622 289.860, 235.318 279.304, 235.573 279.065 C 235.828 278.826, 237.727 280.176, 239.793 282.065 C 241.860 283.954, 240.944 282.884, 237.759 279.687 C 225.577 267.458, 210.931 247.318, 204.900 234.500 C 196.436 216.511, 197.335 199.025, 207.356 186.731 C 213.759 178.876, 217.076 177, 224.566 177 C 232.322 177, 233.695 177.509, 235.534 181.065 C 237.017 183.933, 245.581 206.369, 246.991 211.080 C 248.072 214.692, 246.123 218.739, 240.098 225.391 C 237.294 228.488, 235 231.489, 235 232.060 C 235 235.922, 246.329 251.978, 254.710 259.995 C 258.445 263.567, 260.009 264.917, 258.186 262.995 L 254.872 259.500 302.670 212.299 L 350.468 165.098 347.484 161.956 C 342.863 157.090, 330.016 147.698, 321.867 143.229 C 312.403 138.038, 299.016 133.362, 288.240 131.483 C 280.957 130.213, 260.672 129.611, 256 130.526 M 352 167.313 C 352 167.485, 353.462 168.948, 355.250 170.563 L 358.500 173.500 355.563 170.250 C 352.825 167.221, 352 166.540, 352 167.313 M 382.355 243.500 C 382.352 248.450, 382.521 250.601, 382.731 248.280 C 382.940 245.959, 382.943 241.909, 382.736 239.280 C 382.530 236.651, 382.358 238.550, 382.355 243.500 M 320 268.449 C 320 268.724, 321.350 269.647, 323 270.500 C 324.650 271.353, 326 271.826, 326 271.551 C 326 271.276, 324.650 270.353, 323 269.500 C 321.350 268.647, 320 268.174, 320 268.449 M 291.049 275.450 C 289.210 277.347, 286.759 279.086, 285.603 279.314 C 283.548 279.718, 283.547 279.731, 285.547 279.864 C 286.740 279.943, 289.224 278.331, 291.500 276 C 293.648 273.800, 295.178 272, 294.899 272 C 294.620 272, 292.888 273.552, 291.049 275.450 M 274 274.493 C 274 275.170, 282.123 279.211, 282.575 278.758 C 282.785 278.549, 280.941 277.398, 278.478 276.202 C 276.015 275.005, 274 274.236, 274 274.493 M 262 298.493 C 262 299.170, 270.123 303.211, 270.575 302.758 C 270.785 302.549, 268.941 301.398, 266.478 300.202 C 264.015 299.005, 262 298.236, 262 298.493 M 323 309 C 321.075 310.054, 319.860 310.935, 320.300 310.958 C 321.359 311.014, 327 308.081, 327 307.474 C 327 306.820, 326.941 306.842, 323 309 M 348.473 325.250 L 341.500 332.500 348.750 325.527 C 355.484 319.050, 356.457 318, 355.723 318 C 355.571 318, 352.308 321.262, 348.473 325.250 M 318 347 C 316.075 348.054, 314.860 348.935, 315.300 348.958 C 316.359 349.014, 322 346.081, 322 345.474 C 322 344.820, 321.941 344.842, 318 347 M 257.250 358.689 C 258.212 358.941, 259.788 358.941, 260.750 358.689 C 261.712 358.438, 260.925 358.232, 259 358.232 C 257.075 358.232, 256.288 358.438, 257.250 358.689 M 274.250 358.689 C 275.212 358.941, 276.788 358.941, 277.750 358.689 C 278.712 358.438, 277.925 358.232, 276 358.232 C 274.075 358.232, 273.288 358.438, 274.250 358.689 M 264.768 382.725 C 266.565 382.947, 269.265 382.943, 270.768 382.715 C 272.271 382.486, 270.800 382.304, 267.500 382.310 C 264.200 382.315, 262.971 382.502, 264.768 382.725" stroke="none" fill="#45a12f" fill-rule="evenodd"/></svg>