<svg xmlns="http://www.w3.org/2000/svg" width="1200" height="628" viewBox="0 0 1200 628" version="1.1"><path d="M 189.466 102.516 C 126.783 111.396, 70.908 146.730, 36.030 199.545 C -12.380 272.850, -11.889 368.356, 37.276 442 C 52.899 465.402, 73.597 485.889, 98.247 502.350 C 154.046 539.614, 223.469 548.945, 287.748 527.822 C 368.997 501.122, 426.434 430.675, 437.049 344.702 C 437.818 338.473, 438.094 326.826, 437.805 312.728 C 437.555 300.532, 437.478 290.991, 437.634 291.526 C 437.790 292.062, 444.036 314.550, 451.514 341.500 C 458.992 368.450, 465.793 392.863, 466.626 395.750 L 468.142 401 497.571 401 C 522.294 401, 527 400.773, 527 399.583 C 527 398.804, 526.623 398.017, 526.163 397.833 C 524.854 397.312, 489 268.908, 489 264.743 L 489 261.030 459.823 260.765 L 430.646 260.500 426.481 248.294 C 415.509 216.130, 394.872 184.074, 370.289 161.007 C 337.853 130.571, 302.343 112.592, 257.454 103.878 C 243.125 101.096, 204.893 100.330, 189.466 102.516 M 565 173.500 L 565 199 567.978 199 L 570.957 199 571.228 179.788 L 571.500 160.575 586.500 179.772 C 600.502 197.691, 601.717 198.969, 604.767 198.984 L 608.034 199 607.767 173.750 L 607.500 148.500 604.271 148.188 L 601.043 147.876 600.771 167.567 L 600.500 187.257 585.175 167.628 C 572.764 151.732, 569.389 148, 567.425 148 L 565 148 565 173.500 M 631 173.500 L 631 199 634 199 L 637 199 637 173.500 L 637 148 634 148 L 631 148 631 173.500 M 660 173.437 L 660 199 677.500 199 L 695 199 695 196 L 695 193 681.019 193 L 667.038 193 666.769 170.750 L 666.500 148.500 663.250 148.187 L 660 147.873 660 173.437 M 713 173.482 L 713 199.206 725.279 198.853 C 736.066 198.543, 738.161 198.191, 742.529 195.951 C 758.602 187.711, 758.583 159.219, 742.500 151.127 C 738.180 148.953, 735.835 148.553, 725.250 148.185 L 713 147.759 713 173.482 M 778.213 172.821 C 772.596 186.473, 768 197.948, 768 198.321 C 768 198.695, 769.471 199, 771.269 199 C 774.416 199, 774.645 198.720, 777.401 191.500 L 780.265 184 791 184 L 801.735 184 804.599 191.500 C 807.355 198.720, 807.584 199, 810.731 199 C 812.529 199, 814 198.744, 814 198.431 C 814 198.119, 809.425 186.644, 803.833 172.931 C 790.252 139.626, 791.868 139.633, 778.213 172.821 M 719 173.500 L 719 193 727.250 192.984 C 733.929 192.970, 736.248 192.542, 739.426 190.734 C 744.754 187.702, 747.935 181.370, 747.972 173.718 C 748.005 166.913, 746.336 162.491, 742.373 158.886 C 738.463 155.328, 733.970 154, 725.851 154 L 719 154 719 173.500 M 786.705 166.250 C 784.707 171.338, 782.783 176.287, 782.429 177.250 C 781.846 178.837, 782.646 179, 791 179 C 799.378 179, 800.150 178.841, 799.506 177.250 C 799.116 176.287, 797.207 171.338, 795.263 166.250 C 793.320 161.162, 791.416 157, 791.033 157 C 790.651 157, 788.703 161.162, 786.705 166.250 M 129 228.740 C 129 229.213, 129.429 230.029, 129.953 230.553 C 132.620 233.220, 133.077 247.540, 132.793 319.529 C 132.527 386.603, 132.342 393.850, 130.801 397.250 L 129.102 401 160.551 401 C 177.848 401, 192 400.830, 192 400.622 C 192 400.414, 191.325 398.629, 190.500 396.654 C 189.306 393.796, 189 388.088, 189 368.641 L 189 344.217 193.175 342.546 C 196.565 341.190, 197.503 341.123, 198.160 342.188 C 198.605 342.910, 207.194 356.325, 217.245 372 L 235.520 400.500 269.767 400.763 L 304.013 401.026 299.257 395.085 C 296.640 391.818, 287.874 378.869, 279.776 366.310 C 271.677 353.750, 262.903 341.367, 260.276 338.788 C 253.941 332.569, 245.751 328.909, 236.404 328.120 L 229.056 327.500 254.778 316.868 L 280.500 306.237 280.774 288.392 C 281.076 268.716, 280.323 263.262, 276.086 254.435 C 270.751 243.319, 260.923 234.806, 248.604 230.631 C 242.768 228.652, 240.008 228.547, 185.750 228.221 C 154.485 228.033, 129 228.266, 129 228.740 M 201.368 230.057 C 197.939 231.085, 191.467 237.640, 189.955 241.617 C 189.077 243.927, 188.497 343, 189.362 343 C 189.561 343, 197.549 339.681, 207.112 335.624 L 224.500 328.247 224.796 287.374 C 225.103 244.933, 224.849 241.621, 220.906 236.607 C 216.789 231.374, 207.436 228.238, 201.368 230.057 M 978.574 232.750 C 979.570 235.541, 979.923 243.894, 979.956 265.410 L 980 294.319 976.872 288.059 C 973.006 280.324, 963.760 270.276, 957.244 266.730 C 946.489 260.876, 932.323 259.421, 920.783 262.985 C 880.466 275.438, 865.254 338.297, 892.997 377.802 C 911.836 404.628, 944.256 408.595, 967.437 386.910 C 970.907 383.664, 975.265 378.768, 977.123 376.030 C 980.698 370.760, 981.994 369.890, 982.010 372.750 C 982.028 376.017, 986.839 384.870, 991.121 389.515 C 998.843 397.892, 1008.295 402.052, 1019.747 402.112 C 1028.470 402.157, 1034.999 400.172, 1041.629 395.459 C 1046.211 392.201, 1046.334 392, 1043.747 392 C 1040.639 392, 1037.328 389.162, 1036.484 385.775 C 1036.173 384.524, 1036.049 350.200, 1036.209 309.500 C 1036.472 242.636, 1036.661 235.187, 1038.173 232.250 L 1039.847 229 1008.541 229 L 977.236 229 978.574 232.750 M 337.230 263.015 C 315.144 268.802, 296.485 285.871, 288.643 307.464 C 284.796 318.057, 283.861 334.782, 286.462 346.474 C 291.740 370.198, 310.104 390.168, 333.449 397.572 C 369.031 408.857, 412.787 388.894, 427.857 354.500 C 428.955 351.995, 428.226 352.451, 423.438 357.269 C 410.274 370.512, 390.894 374.970, 373.080 368.852 C 353.036 361.969, 339 342.380, 339 321.290 L 339 315 384 315 C 409.019 315, 429 314.612, 429 314.126 C 429 312.393, 425.936 304.622, 422.889 298.626 C 413.905 280.945, 396.206 267.091, 376.742 262.501 C 367.513 260.325, 346.451 260.599, 337.230 263.015 M 526.056 263.531 C 543.365 276.250, 552.015 294.628, 549.046 312.380 C 548.505 315.614, 543.741 334.219, 538.460 353.725 C 533.179 373.231, 529.020 389.353, 529.218 389.551 C 529.554 389.887, 563.840 268.175, 564.796 263.250 L 565.233 261 543.922 261 L 522.611 261 526.056 263.531 M 617 263.052 C 584.032 271.587, 562.445 300.805, 564.280 334.408 C 565.432 355.487, 574.262 372.656, 590.756 385.886 C 598.762 392.307, 607.440 396.424, 618.615 399.104 C 650.347 406.711, 689.112 388.657, 704.985 358.878 C 706.643 355.766, 708 352.992, 708 352.714 C 708 352.436, 705.396 354.749, 702.213 357.854 C 689.026 370.719, 669.912 374.991, 652.438 368.979 C 632.633 362.165, 618 341.689, 618 320.790 L 618 315 663.079 315 L 708.159 315 707.491 311.750 C 706.258 305.756, 699.196 292.562, 693.620 285.835 C 684.248 274.528, 669.284 265.441, 655.077 262.429 C 645.331 260.363, 626.175 260.676, 617 263.052 M 725.844 262.329 C 718.374 265.130, 707.397 272.755, 712.911 271.313 C 714.299 270.950, 715.908 271.755, 718.021 273.867 L 721.104 276.950 720.802 335.225 C 720.531 387.511, 720.325 393.885, 718.801 397.250 L 717.102 401 748.551 401 C 765.848 401, 780 400.830, 780 400.622 C 780 400.414, 779.212 398.502, 778.250 396.372 C 776.668 392.871, 776.500 388.239, 776.500 348 C 776.500 296.716, 776.782 294.151, 783.087 288.032 C 790.039 281.285, 800.177 280.443, 805.652 286.159 L 808.500 289.133 808.500 341.316 C 808.500 388.280, 808.330 393.875, 806.801 397.250 L 805.102 401 836.551 401 C 853.848 401, 868 400.830, 868 400.622 C 868 400.414, 867.235 398.502, 866.299 396.372 C 864.805 392.970, 864.526 386.619, 864 344 C 863.353 291.507, 863.467 292.592, 857.564 282.519 C 854.565 277.401, 845.556 268.833, 840.427 266.221 C 827.040 259.402, 811.091 259.303, 798.073 265.958 C 792.080 269.022, 783.873 276.962, 781.230 282.253 C 780.039 284.640, 778.404 289.046, 777.598 292.046 C 776.675 295.480, 776.107 296.539, 776.066 294.907 C 775.953 290.447, 772.202 281.043, 768.556 276.076 C 764.646 270.750, 759.915 267.158, 752.513 263.895 C 746.219 261.120, 731.390 260.250, 725.844 262.329 M 1108.500 261.595 C 1090.862 265.723, 1081.229 270.750, 1070.402 281.477 C 1054.487 297.245, 1047.596 316.706, 1050.097 338.823 C 1051.964 355.337, 1057.993 367.825, 1070 380.053 C 1093.466 403.949, 1129.191 407.482, 1161 389.051 C 1170.658 383.455, 1185.266 368.883, 1189.761 360.360 C 1191.543 356.983, 1193 353.897, 1193 353.502 C 1193 353.108, 1190.196 355.380, 1186.770 358.552 C 1171.614 372.585, 1151.283 375.566, 1132.466 366.516 C 1115.444 358.329, 1104.650 341.928, 1103.826 323 L 1103.500 315.500 1148.750 315.240 C 1173.638 315.097, 1194 314.830, 1194 314.646 C 1194 314.463, 1193.101 311.700, 1192.002 308.507 C 1185.055 288.314, 1168.071 271.369, 1147.901 264.507 C 1140.412 261.959, 1137.926 261.620, 1125 261.388 C 1117.025 261.245, 1109.600 261.338, 1108.500 261.595 M 349.500 263.417 C 345.773 265.081, 341.469 269.596, 340.064 273.315 C 339.449 274.943, 339 284.118, 339 295.065 L 339 314 357 314 L 375 314 375 295.065 C 375 274.933, 374.534 272.277, 370.186 267.627 C 365.148 262.239, 356.214 260.421, 349.500 263.417 M 628.841 263.344 C 625.005 265.049, 622.058 267.969, 619.894 272.210 C 618.232 275.466, 618 278.250, 618 294.960 L 618 314 636.592 314 L 655.184 314 654.842 294.750 C 654.506 275.863, 654.448 275.412, 651.764 270.846 C 647.307 263.263, 636.777 259.818, 628.841 263.344 M 1112.907 264.320 C 1109.955 265.874, 1107.675 268.103, 1106 271.070 C 1103.615 275.296, 1103.484 276.386, 1103.158 294.750 L 1102.816 314 1121.408 314 L 1140 314 1139.978 295.250 C 1139.959 279.163, 1139.694 275.932, 1138.110 272.500 C 1133.528 262.571, 1122.826 259.098, 1112.907 264.320 M 957.640 286.587 C 947.635 289.753, 938.736 302.348, 935.378 318.094 C 932.496 331.609, 935.018 349.529, 941.313 360.272 C 944.473 365.663, 951.961 372.668, 956.667 374.634 C 961.454 376.634, 970.802 376.671, 974.605 374.704 C 980.529 371.641, 980.344 373.006, 980.106 334.202 C 979.901 300.726, 979.762 298.237, 977.873 294.288 C 974.260 286.734, 966.503 283.782, 957.640 286.587 M 436 289 C 436 289.733, 436.300 290.033, 436.667 289.667 C 437.033 289.300, 437.033 288.700, 436.667 288.333 C 436.300 287.967, 436 288.267, 436 289 M 227 328.500 C 227 328.775, 227.225 329, 227.500 329 C 227.775 329, 228 328.775, 228 328.500 C 228 328.225, 227.775 328, 227.500 328 C 227.225 328, 227 328.225, 227 328.500 M 527.571 393.571 C 527.204 395.037, 527.096 396.429, 527.331 396.665 C 527.567 396.900, 528.061 395.894, 528.429 394.429 C 528.796 392.963, 528.904 391.571, 528.669 391.335 C 528.433 391.100, 527.939 392.106, 527.571 393.571" stroke="none" fill="#162144" fill-rule="evenodd"/></svg>